<?xml version="1.0" encoding="UTF-8"?>
<svg id="Layer_2" data-name="Layer 2" xmlns="http://www.w3.org/2000/svg" viewBox="0 0 225.79 220.45">
  <defs>
    <style>
      .cls-1, .cls-2, .cls-3 {
        fill: none;
        stroke: #b56030;
        stroke-miterlimit: 10;
      }

      .cls-4 {
        fill: #b56030;
        stroke-width: 0px;
      }

      .cls-2 {
        stroke-width: .25px;
      }

      .cls-3 {
        stroke-width: .5px;
      }
    </style>
  </defs>
  <g id="animCircle">
    <polyline class="cls-2" points="119.66 117.69 134.79 113.69 134.79 114.69 141.79 113.69 145.79 107.69 191.79 106.69 200.7 106.69 200.7 110.11 210.79 109.69 210.79 98.76 222.79 96.69"/>
    <g id="anim">
      <g>
        <path class="cls-3" d="m114.53.25C51.6,2.23,1.29,53.78,1.29,117.19c0,8.65.94,17.08,2.71,25.2l-3.71.8.98,5.05"/>
        <path class="cls-3" d="m22.17,183.96c10.47,15.05,24.38,27.52,40.6,36.27"/>
        <path class="cls-3" d="m11.97,114.3C13.32,63.55,50.12,21.73,98.54,12.65"/>
        <path class="cls-3" d="m86.38,26.9c-37.2,13.13-63.82,48.57-63.82,90.29,0,13.12,2.63,25.62,7.4,37l-9.93,3.81s3.42,10.43,17.84,28.81"/>
        <path class="cls-3" d="m133.18,200.99c-4.83.85-9.81,1.29-14.89,1.29-11.29,0-22.06-2.19-31.91-6.18"/>
        <path class="cls-3" d="m151.19,38.68c30.67,12.85,52.19,43.14,52.19,78.51,0,28.09-13.57,52.97-34.52,68.46"/>
        <path class="cls-3" d="m173.56,167.11c11.93-13.2,19.19-30.7,19.19-49.92,0-30.31-18.06-56.36-44.02-67.98"/>
        <path class="cls-3" d="m156.75,66.24c15.41,11.64,25.36,30.13,25.36,50.95,0,14.3-4.69,27.5-12.62,38.13"/>
        <path class="cls-3" d="m77.76,104.2c3.93-12.28,13.27-22.13,25.23-26.73"/>
        <path class="cls-3" d="m109.71,158.87c-5.31-1.08-10.25-3.16-14.64-6.01"/>
        <path class="cls-3" d="m148.77,146.89c-5.83,5.98-13.4,10.25-21.9,11.98"/>
        <path class="cls-3" d="m127.63,75.67c19.02,4.25,33.2,21.21,33.2,41.52,0,8.48-2.47,16.38-6.74,23.01"/>
        <circle class="cls-3" cx="118.29" cy="117.19" r="31.91"/>
      </g>
    </g>
    <path class="cls-1" d="m222.79,96.69s1.47,5.95,1.73,15.48"/>
    <circle class="cls-4" cx="191.79" cy="106.69" r="2"/>
    <circle class="cls-4" cx="222.79" cy="96.69" r="3"/>
  </g>
</svg>