<?xml version="1.0" encoding="UTF-8"?>
<svg id="Layer_2" data-name="Layer 2" xmlns="http://www.w3.org/2000/svg" viewBox="0 0 317 317">
  <defs>
    <style>
      .cls-1, .cls-2 {
        fill: none;
        stroke: #fff;
        stroke-miterlimit: 10;
      }

      .cls-2 {
        stroke-width: 1.5px;
      }
    </style>
  </defs>
  <g id="innerCircle">
    <line class="cls-1" x1="169.79" y1="29.41" x2="170.31" y2="23.52"/>
    <line class="cls-1" x1="181" y1="30.89" x2="182.03" y2="25.06"/>
    <line class="cls-1" x1="192.04" y1="33.33" x2="193.57" y2="27.62"/>
    <line class="cls-1" x1="202.82" y1="36.73" x2="204.84" y2="31.17"/>
    <line class="cls-1" x1="213.26" y1="41.06" x2="215.76" y2="35.7"/>
    <line class="cls-1" x1="223.29" y1="46.28" x2="226.25" y2="41.15"/>
    <line class="cls-1" x1="232.82" y1="52.35" x2="236.22" y2="47.5"/>
    <line class="cls-1" x1="241.79" y1="59.24" x2="245.6" y2="54.7"/>
    <line class="cls-1" x1="250.13" y1="66.87" x2="254.31" y2="62.69"/>
    <line class="cls-1" x1="257.76" y1="75.21" x2="262.3" y2="71.4"/>
    <line class="cls-1" x1="264.65" y1="84.18" x2="269.5" y2="80.78"/>
    <line class="cls-1" x1="270.72" y1="93.71" x2="275.85" y2="90.75"/>
    <line class="cls-1" x1="275.94" y1="103.74" x2="281.3" y2="101.24"/>
    <line class="cls-1" x1="280.27" y1="114.18" x2="285.83" y2="112.16"/>
    <line class="cls-1" x1="283.67" y1="124.96" x2="289.38" y2="123.43"/>
    <line class="cls-1" x1="286.11" y1="136" x2="291.94" y2="134.97"/>
    <line class="cls-1" x1="287.59" y1="147.21" x2="293.48" y2="146.69"/>
    <line class="cls-1" x1="158.5" y1="158.5" x2="223.29" y2="158.5"/>
    <line class="cls-1" x1="287.59" y1="169.79" x2="293.48" y2="170.31"/>
    <line class="cls-1" x1="286.11" y1="181" x2="291.94" y2="182.03"/>
    <line class="cls-1" x1="283.67" y1="192.04" x2="289.38" y2="193.57"/>
    <line class="cls-1" x1="280.27" y1="202.82" x2="285.83" y2="204.84"/>
    <line class="cls-1" x1="275.94" y1="213.26" x2="281.3" y2="215.76"/>
    <line class="cls-1" x1="270.72" y1="223.29" x2="275.85" y2="226.25"/>
    <line class="cls-1" x1="264.65" y1="232.82" x2="269.5" y2="236.22"/>
    <line class="cls-1" x1="257.76" y1="241.79" x2="262.3" y2="245.6"/>
    <line class="cls-1" x1="250.13" y1="250.13" x2="254.31" y2="254.31"/>
    <line class="cls-1" x1="241.79" y1="257.76" x2="245.6" y2="262.3"/>
    <line class="cls-1" x1="232.82" y1="264.65" x2="236.22" y2="269.5"/>
    <line class="cls-1" x1="223.29" y1="270.72" x2="226.25" y2="275.85"/>
    <line class="cls-1" x1="213.26" y1="275.94" x2="215.76" y2="281.3"/>
    <line class="cls-1" x1="202.82" y1="280.27" x2="204.84" y2="285.83"/>
    <line class="cls-1" x1="192.04" y1="283.67" x2="193.57" y2="289.38"/>
    <line class="cls-1" x1="181" y1="286.11" x2="182.03" y2="291.94"/>
    <line class="cls-1" x1="169.79" y1="287.59" x2="170.31" y2="293.48"/>
    <line class="cls-1" x1="158.5" y1="93.5" x2="158.5" y2="158.29"/>
    <line class="cls-1" x1="158.5" y1="158.5" x2="158.5" y2="223.29"/>
    <line class="cls-1" x1="147.21" y1="287.59" x2="146.69" y2="293.48"/>
    <line class="cls-1" x1="136" y1="286.11" x2="134.97" y2="291.94"/>
    <line class="cls-1" x1="124.96" y1="283.67" x2="123.43" y2="289.38"/>
    <line class="cls-1" x1="114.18" y1="280.27" x2="112.16" y2="285.83"/>
    <line class="cls-1" x1="103.74" y1="275.94" x2="101.24" y2="281.3"/>
    <line class="cls-1" x1="93.71" y1="270.72" x2="90.75" y2="275.85"/>
    <line class="cls-1" x1="84.18" y1="264.65" x2="80.78" y2="269.5"/>
    <line class="cls-1" x1="75.21" y1="257.76" x2="71.4" y2="262.3"/>
    <line class="cls-1" x1="66.87" y1="250.13" x2="62.69" y2="254.31"/>
    <line class="cls-1" x1="59.24" y1="241.79" x2="54.7" y2="245.6"/>
    <line class="cls-1" x1="52.35" y1="232.82" x2="47.5" y2="236.22"/>
    <line class="cls-1" x1="46.28" y1="223.29" x2="41.15" y2="226.25"/>
    <line class="cls-1" x1="41.06" y1="213.26" x2="35.7" y2="215.76"/>
    <line class="cls-1" x1="36.73" y1="202.82" x2="31.17" y2="204.84"/>
    <line class="cls-1" x1="33.33" y1="192.04" x2="27.62" y2="193.57"/>
    <line class="cls-1" x1="30.89" y1="181" x2="25.06" y2="182.03"/>
    <line class="cls-1" x1="29.41" y1="169.79" x2="23.52" y2="170.31"/>
    <line class="cls-1" x1="158.5" y1="158.5" x2="93.71" y2="158.5"/>
    <line class="cls-1" x1="29.41" y1="147.21" x2="23.52" y2="146.69"/>
    <line class="cls-1" x1="30.89" y1="136" x2="25.06" y2="134.97"/>
    <line class="cls-1" x1="33.33" y1="124.96" x2="27.62" y2="123.43"/>
    <line class="cls-1" x1="36.73" y1="114.18" x2="31.17" y2="112.16"/>
    <line class="cls-1" x1="41.06" y1="103.74" x2="35.7" y2="101.24"/>
    <line class="cls-1" x1="46.28" y1="93.71" x2="41.15" y2="90.75"/>
    <line class="cls-1" x1="52.35" y1="84.18" x2="47.5" y2="80.78"/>
    <line class="cls-1" x1="59.24" y1="75.21" x2="54.7" y2="71.4"/>
    <line class="cls-1" x1="66.87" y1="66.87" x2="62.69" y2="62.69"/>
    <line class="cls-1" x1="75.21" y1="59.24" x2="71.4" y2="54.7"/>
    <line class="cls-1" x1="84.18" y1="52.35" x2="80.78" y2="47.5"/>
    <line class="cls-1" x1="93.71" y1="46.28" x2="90.75" y2="41.15"/>
    <line class="cls-1" x1="103.74" y1="41.06" x2="101.24" y2="35.7"/>
    <line class="cls-1" x1="114.18" y1="36.73" x2="112.16" y2="31.17"/>
    <line class="cls-1" x1="124.96" y1="33.33" x2="123.43" y2="27.62"/>
    <line class="cls-1" x1="136" y1="30.89" x2="134.97" y2="25.06"/>
    <line class="cls-1" x1="147.21" y1="29.41" x2="146.69" y2="23.52"/>
    <line class="cls-1" x1="278.62" y1="158.5" x2="317" y2="158.5"/>
    <line class="cls-1" x1="158.5" y1="278.62" x2="158.5" y2="317"/>
    <line class="cls-1" x1="38.38" y1="158.5" x2="0" y2="158.5"/>
    <line class="cls-1" x1="158.5" y1="38.38" x2="158.5"/>
    <circle class="cls-2" cx="158.5" cy="158.5" r="132.5"/>
  </g>
</svg>