<?xml version="1.0" encoding="UTF-8"?>
<svg id="Layer_2" data-name="Layer 2" xmlns="http://www.w3.org/2000/svg" viewBox="0 0 234 234">
  <defs>
    <style>
      .cls-1 {
        fill: #fff;
        stroke-width: 0px;
      }
    </style>
  </defs>
  <g id="insideCircle">
    <path class="cls-1" d="m117,.05c15.8,0,31.13,3.09,45.54,9.18,13.93,5.89,26.43,14.31,37.17,25.05,10.74,10.74,19.16,23.24,25.05,37.17,6.09,14.42,9.18,29.74,9.18,45.54s-3.09,31.13-9.18,45.54c-5.89,13.93-14.31,26.44-25.05,37.17-10.74,10.74-23.24,19.16-37.17,25.05-14.42,6.09-29.74,9.18-45.54,9.18s-31.13-3.09-45.54-9.18c-13.93-5.89-26.43-14.31-37.17-25.05-10.74-10.74-19.16-23.24-25.05-37.17C3.14,148.13.05,132.8.05,117s3.09-31.13,9.18-45.54c5.89-13.93,14.31-26.44,25.05-37.17,10.74-10.74,23.24-19.16,37.17-25.05C85.87,3.14,101.2.05,117,.05m0-.05C52.33,0,0,52.33,0,117s52.33,117,117,117,117-52.33,117-117S181.67,0,117,0h0Z"/>
    <path class="cls-1" d="m117,10.69c14.36,0,28.29,2.81,41.4,8.35,12.66,5.35,24.03,13.01,33.79,22.77,9.76,9.76,17.42,21.13,22.77,33.79,5.54,13.11,8.35,27.04,8.35,41.4s-2.81,28.29-8.35,41.4c-5.35,12.66-13.01,24.03-22.77,33.79s-21.13,17.42-33.79,22.77c-13.11,5.54-27.04,8.35-41.4,8.35s-28.29-2.81-41.4-8.35c-12.66-5.35-24.03-13.01-33.79-22.77s-17.42-21.13-22.77-33.79c-5.54-13.11-8.35-27.04-8.35-41.4s2.81-28.29,8.35-41.4c5.35-12.66,13.01-24.03,22.77-33.79,9.76-9.76,21.13-17.42,33.79-22.77,13.11-5.54,27.04-8.35,41.4-8.35m0-.05C58.21,10.64,10.64,58.21,10.64,117s47.57,106.36,106.36,106.36,106.36-47.57,106.36-106.36S175.79,10.64,117,10.64h0Z"/>
    <path class="cls-1" d="m117,21.32c12.93,0,25.46,2.53,37.26,7.51,11.4,4.82,21.63,11.71,30.41,20.49,8.78,8.78,15.68,19.01,20.49,30.41,4.99,11.8,7.51,24.33,7.51,37.26s-2.53,25.46-7.51,37.26c-4.82,11.4-11.71,21.63-20.49,30.41s-19.01,15.68-30.41,20.49c-11.8,4.99-24.33,7.51-37.26,7.51s-25.46-2.53-37.26-7.51c-11.4-4.82-21.63-11.71-30.41-20.49-8.78-8.78-15.68-19.01-20.49-30.41-4.99-11.8-7.51-24.33-7.51-37.26s2.53-25.46,7.51-37.26c4.82-11.4,11.71-21.63,20.49-30.41,8.78-8.78,19.01-15.68,30.41-20.49,11.8-4.99,24.33-7.51,37.26-7.51m0-.05c-52.91,0-95.73,42.82-95.73,95.73s42.82,95.73,95.73,95.73,95.73-42.82,95.73-95.73S169.91,21.27,117,21.27h0Z"/>
    <path class="cls-1" d="m117,31.96c11.49,0,22.63,2.25,33.12,6.68,10.13,4.28,19.22,10.41,27.03,18.22,7.81,7.81,13.94,16.9,18.22,27.03,4.43,10.48,6.68,21.63,6.68,33.12s-2.25,22.63-6.68,33.12c-4.28,10.13-10.41,19.22-18.22,27.03-7.81,7.81-16.9,13.94-27.03,18.22-10.48,4.43-21.63,6.68-33.12,6.68s-22.63-2.25-33.12-6.68c-10.13-4.28-19.22-10.41-27.03-18.22-7.81-7.81-13.94-16.9-18.22-27.03-4.43-10.48-6.68-21.63-6.68-33.12s2.25-22.63,6.68-33.12c4.28-10.13,10.41-19.22,18.22-27.03,7.81-7.81,16.9-13.94,27.03-18.22,10.48-4.43,21.63-6.68,33.12-6.68m0-.05c-47.03,0-85.09,38.06-85.09,85.09s38.06,85.09,85.09,85.09,85.09-38.06,85.09-85.09S164.03,31.91,117,31.91h0Z"/>
    <path class="cls-1" d="m117,42.6c10.05,0,19.8,1.97,28.98,5.84,8.86,3.74,16.82,9.11,23.65,15.94,6.83,6.83,12.19,14.79,15.94,23.65,3.88,9.17,5.84,18.92,5.84,28.98s-1.97,19.8-5.84,28.98c-3.74,8.86-9.11,16.82-15.94,23.65-6.83,6.83-14.79,12.19-23.65,15.94-9.17,3.88-18.92,5.84-28.98,5.84s-19.8-1.97-28.98-5.84c-8.86-3.74-16.82-9.11-23.65-15.94-6.83-6.83-12.19-14.79-15.94-23.65-3.88-9.17-5.84-18.92-5.84-28.98s1.97-19.8,5.84-28.98c3.74-8.86,9.11-16.82,15.94-23.65,6.83-6.83,14.79-12.19,23.65-15.94,9.17-3.88,18.92-5.84,28.98-5.84m0-.05c-41.15,0-74.45,33.3-74.45,74.45s33.3,74.45,74.45,74.45,74.45-33.3,74.45-74.45-33.3-74.45-74.45-74.45h0Z"/>
    <path class="cls-1" d="m117,53.23c8.62,0,16.97,1.68,24.83,5.01,7.59,3.21,14.41,7.81,20.27,13.66,5.85,5.85,10.45,12.67,13.66,20.27,3.32,7.86,5.01,16.22,5.01,24.83s-1.68,16.97-5.01,24.83c-3.21,7.59-7.81,14.41-13.66,20.27-5.85,5.85-12.67,10.45-20.27,13.66-7.86,3.32-16.22,5.01-24.83,5.01s-16.97-1.68-24.83-5.01c-7.59-3.21-14.41-7.81-20.27-13.66-5.85-5.85-10.45-12.67-13.66-20.27-3.32-7.86-5.01-16.22-5.01-24.83s1.68-16.97,5.01-24.83c3.21-7.59,7.81-14.41,13.66-20.27,5.85-5.85,12.67-10.45,20.27-13.66,7.86-3.32,16.22-5.01,24.83-5.01m0-.05c-35.27,0-63.82,28.54-63.82,63.82s28.54,63.82,63.82,63.82,63.82-28.54,63.82-63.82-28.54-63.82-63.82-63.82h0Z"/>
    <path class="cls-1" d="m117,63.87c7.18,0,14.14,1.4,20.69,4.17,6.33,2.67,12.01,6.5,16.89,11.38,4.88,4.88,8.71,10.56,11.38,16.89,2.77,6.55,4.17,13.51,4.17,20.69s-1.4,14.14-4.17,20.69c-2.67,6.33-6.5,12.01-11.38,16.89-4.88,4.88-10.56,8.71-16.89,11.38-6.55,2.77-13.51,4.17-20.69,4.17s-14.14-1.4-20.69-4.17c-6.33-2.67-12.01-6.5-16.89-11.38s-8.71-10.56-11.38-16.89c-2.77-6.55-4.17-13.51-4.17-20.69s1.4-14.14,4.17-20.69c2.67-6.33,6.5-12.01,11.38-16.89s10.56-8.71,16.89-11.38c6.55-2.77,13.51-4.17,20.69-4.17m0-.05c-29.4,0-53.18,23.79-53.18,53.18s23.79,53.18,53.18,53.18,53.18-23.79,53.18-53.18-23.79-53.18-53.18-53.18h0Z"/>
    <path class="cls-1" d="m117,74.5c11.36,0,22.03,4.42,30.06,12.44,8.02,8.02,12.44,18.7,12.44,30.06s-4.42,22.03-12.44,30.06c-8.02,8.02-18.7,12.44-30.06,12.44s-22.03-4.42-30.06-12.44c-8.02-8.02-12.44-18.7-12.44-30.06s4.42-22.03,12.44-30.06c8.02-8.02,18.7-12.44,30.06-12.44m0-.05c-23.52,0-42.55,19.03-42.55,42.55s19.03,42.55,42.55,42.55,42.55-19.03,42.55-42.55-19.03-42.55-42.55-42.55h0Z"/>
    <path class="cls-1" d="m117,85.14c8.52,0,16.52,3.31,22.53,9.33,6.01,6.01,9.33,14.02,9.33,22.53s-3.31,16.52-9.33,22.53-14.02,9.33-22.53,9.33-16.52-3.31-22.53-9.33-9.33-14.02-9.33-22.53,3.31-16.52,9.33-22.53c6.01-6.01,14.02-9.33,22.53-9.33m0-.05c-17.64,0-31.91,14.27-31.91,31.91s14.27,31.91,31.91,31.91,31.91-14.27,31.91-31.91-14.27-31.91-31.91-31.91h0Z"/>
    <path class="cls-1" d="m117,95.78c5.67,0,11,2.21,15.01,6.21s6.21,9.34,6.21,15.01-2.21,11-6.21,15.01c-4.01,4.01-9.34,6.21-15.01,6.21s-11-2.21-15.01-6.21c-4.01-4.01-6.21-9.34-6.21-15.01s2.21-11,6.21-15.01c4.01-4.01,9.34-6.21,15.01-6.21m0-.05c-11.76,0-21.27,9.51-21.27,21.27s9.51,21.27,21.27,21.27,21.27-9.51,21.27-21.27-9.51-21.27-21.27-21.27h0Z"/>
    <path class="cls-1" d="m117,106.41c5.84,0,10.59,4.75,10.59,10.59s-4.75,10.59-10.59,10.59-10.59-4.75-10.59-10.59,4.75-10.59,10.59-10.59m0-.05c-5.88,0-10.64,4.76-10.64,10.64s4.76,10.64,10.64,10.64,10.64-4.76,10.64-10.64-4.76-10.64-10.64-10.64h0Z"/>
  </g>
</svg>