<?xml version="1.0" encoding="UTF-8"?>
<svg id="Layer_2" data-name="Layer 2" xmlns="http://www.w3.org/2000/svg" viewBox="0 0 290 290">
  <defs>
    <style>
      .cls-1 {
        fill: #ff8517;
        stroke-width: 0px;
      }
    </style>
  </defs>
  <g id="outsideCircle">
    <path class="cls-1" d="m145,3c37.93,0,73.59,14.77,100.41,41.59,26.82,26.82,41.59,62.48,41.59,100.41s-14.77,73.59-41.59,100.41c-26.82,26.82-62.48,41.59-100.41,41.59s-73.59-14.77-100.41-41.59C17.77,218.59,3,182.93,3,145s14.77-73.59,41.59-100.41C71.41,17.77,107.07,3,145,3m0-3C64.92,0,0,64.92,0,145s64.92,145,145,145,145-64.92,145-145S225.08,0,145,0h0Z"/>
  </g>
</svg>